<svg xmlns="http://www.w3.org/2000/svg" viewBox="0 0 959 248" xml:space="preserve"><path fill="none" d="M708 249H1V1h959v248H708M160.62 70.452c-3.776.401-7.712.256-11.298 1.306-10.901 3.192-17.838 11.215-23.048 20.749-10.51 19.228-9.666 39.308-1.666 58.742 8.037 19.523 17.702 38.393 27.038 57.36 6.175 12.546 6.478 12.397 20.434 12.397h38.448c-4.1-7.499-8.114-14.127-11.451-21.081-8.884-18.512-18.212-36.864-25.957-55.853-6.39-15.667-1.46-22.492 15.625-23.993 7.714-.678 15.537-.115 23.49-.115V70.452h-51.616m-125.838 48.72c4.813.282 9.66.3 14.434.893 15.482 1.924 20.265 8.664 14.522 22.97-6.844 17.047-14.937 33.608-22.86 50.202-4.414 9.242-9.583 18.123-14.732 27.766 12.835 0 25.147-.703 37.336.217 10.198.77 16.392-1.85 21.323-11.605 10.705-21.177 22.269-41.89 29.318-64.7 5.973-19.325 5.226-38.024-5.733-55.548-7.483-11.968-17.535-19.59-32.613-18.995-10.98.433-21.992.085-32.99.085H24.261v49.557c3.39-.289 6.5-.554 10.52-.841M88.215 42.15c-.175 1.822-.439 3.64-.51 5.466-.853 21.675 18.852 37.677 39.057 31.742 14.193-4.17 23.593-18.613 22.114-33.982-1.447-15.045-13.517-27.114-28.297-28.294-15.082-1.205-27.735 8.334-32.364 25.068M595.993 88.5c0 15.481-.335 30.972.115 46.44.297 10.212 3.638 19.668 11.508 26.719 12.656 11.34 30.97 13.541 45.569 5.825 14.682-7.76 22.172-22.948 20.038-40.63-3.412-28.264-36.423-42.81-59.538-26.195-2.608 1.875-4.963 4.103-8.022 6.657V66.751h-9.67V88.5m279.655 74.383c.532.4 1.055.813 1.597 1.2 13.529 9.651 31.266 10.545 44.7 2.255 13.717-8.464 20.978-24.365 17.798-40.962-2.81-14.667-11.57-25.036-25.822-29.774-13.878-4.613-26.59-1.806-37.486 8.23-1.157 1.065-2.316 2.129-4.405 4.049V66.765h-8.897c-.157.805-.335 1.29-.335 1.774-.016 22.66-.421 45.331.17 67.976.26 9.966 4.08 19.151 12.68 26.37M578.866 150.5c-.258-7.81.193-15.72-.903-23.411-4.054-28.443-33.605-41.74-57.379-28.582-15.346 8.493-21.128 22.816-19.448 40.13 1.987 20.48 23.454 36.46 43.703 32.834 9.384-1.68 16.933-6.155 23.745-13.447v13.766h10.286c0-7.018 0-13.654-.004-21.29m129.288-45.868-5.396 4.648V68.832h-9.533v102.814h9.812c0-13.503-.14-26.644.046-39.782.141-9.946 4.158-18.096 12.61-23.654 14.903-9.799 31.495-1.838 32.32 15.8.663 14.134.462 28.308.638 42.465.022 1.76.003 3.522.003 5.15h10.005c-.568-18.197-.486-36.042-1.893-53.77-1.011-12.741-11.017-21.127-23.816-22.158-9.305-.749-17.325 2.358-24.796 8.935m-314.112-10.84c-16.918-1.163-31.38 7.688-38.148 23.344-6.471 14.971-2.888 33.232 8.862 44.161 12.235 11.381 26.698 13.6 41.703 7.62 14.385-5.731 22.462-17.166 23.678-32.935 1.708-22.172-13.988-40.912-36.095-42.19m438.941 34.683c-.264 5.314-.25 10.66-.85 15.935-1.276 11.203-10.35 18.534-22.281 18.357-12.024-.18-21.164-7.257-21.827-18.278-.87-14.436-.703-28.934-.973-43.406-.032-1.76-.004-3.52-.004-5.316h-9.521c-.102 1.13-.247 1.937-.236 2.74.217 14.645-.022 29.316.802 43.926 1.071 18.986 13.545 29.912 32.572 29.56 17.278-.32 29.548-9.439 30.887-25.713 1.37-16.645.303-33.49.303-50.54h-8.872v32.735m-495.97-18.637c-10.167-14.405-30.334-20.197-48.281-13.866-17.553 6.191-27.917 21.978-26.668 40.619 1.102 16.447 13.975 30.89 30.755 34.28 19.268 3.891 38.716-3.836 44.54-15.967l-6.81-4.4c-17.457 15.25-37.62 16.672-50.256 3.812-11.283-11.483-11.535-30.273-.563-42.043 12.794-13.726 32.468-12.549 51.23 3.364 2.068-1.66 4.215-3.382 6.053-5.799M480.487 172c4.232.775 3.9-2 3.896-4.797-.04-31.323-.02-62.645-.037-93.968 0-1.59-.185-3.178-.285-4.799h-8.985v103.327c1.549.083 3 .16 5.411.237m-24.214-49.5V68.506h-9.243V171.7h9.243V122.5z"/><path fill="#1332F3" d="M161.105 70.452h51.13v49.512c-7.953 0-15.776-.563-23.49.115-17.084 1.501-22.016 8.326-15.625 23.993 7.745 18.99 17.073 37.341 25.957 55.853 3.337 6.954 7.351 13.582 11.451 21.08H172.08c-13.956 0-14.26.15-20.434-12.396-9.336-18.967-19.001-37.837-27.038-57.36-8-19.434-8.843-39.514 1.666-58.742 5.21-9.534 12.147-17.557 23.048-20.749 3.586-1.05 7.522-.905 11.783-1.306z"/><path fill="#1231F3" d="M34.327 119.184c-3.565.276-6.675.541-10.066.83V70.457h18.525c10.998 0 22.01.348 32.99-.085 15.078-.594 25.13 7.027 32.613 18.995 10.959 17.524 11.706 36.223 5.733 55.549-7.05 22.808-18.613 43.522-29.318 64.699-4.931 9.755-11.125 12.375-21.323 11.605-12.189-.92-24.5-.217-37.336-.217 5.149-9.643 10.318-18.524 14.731-27.766 7.924-16.594 16.017-33.155 22.861-50.202 5.743-14.306.96-21.046-14.522-22.97-4.775-.593-9.62-.611-14.888-.881z"/><path fill="#1231F3" d="M88.327 41.731c4.517-16.315 17.17-25.854 32.252-24.65 14.78 1.18 26.85 13.25 28.297 28.295 1.479 15.37-7.92 29.813-22.114 33.982-20.205 5.935-39.91-10.067-39.058-31.742.072-1.826.336-3.644.623-5.885z"/><path fill="#203BDB" d="M595.994 88V66.75h9.669v40.566c3.059-2.554 5.414-4.782 8.022-6.657 23.115-16.616 56.126-2.069 59.538 26.195 2.134 17.682-5.356 32.87-20.038 40.63-14.6 7.716-32.913 5.514-45.57-5.825-7.869-7.051-11.21-16.507-11.507-26.719-.45-15.468-.116-30.959-.114-46.94m47.514 73.23c2.116-.943 4.337-1.704 6.33-2.86 10.316-5.982 16.249-19.608 13.747-31.315-2.98-13.949-13.278-23.362-27.044-24.722-11.849-1.171-24.685 6.26-29.183 17.665-4.537 11.504-3.253 22.63 4.82 32.294 8.061 9.65 18.577 12.17 31.33 8.938z"/><path fill="#1F3ADB" d="M875.378 162.652c-8.33-6.986-12.15-16.171-12.41-26.137-.591-22.645-.186-45.316-.17-67.976 0-.484.178-.97.335-1.774h8.897v41.117c2.09-1.92 3.248-2.984 4.405-4.05 10.895-10.035 23.608-12.842 37.486-8.229 14.251 4.738 23.011 15.107 25.822 29.774 3.18 16.597-4.08 32.498-17.798 40.962-13.434 8.29-31.171 7.396-44.7-2.255-.542-.387-1.065-.8-1.867-1.432m50.825-14.087c6.823-12.406 5.955-25.092-2.418-35.36-7.72-9.465-19.855-13.145-31.384-9.516-12.805 4.031-20.575 14.51-20.72 27.946-.148 13.785 7.882 25.616 20.107 29.624 12.776 4.189 25.46-.298 34.415-12.694z"/><path fill="#203BDB" d="M578.868 151c.002 7.136.002 13.772.002 20.79h-10.286v-13.766c-6.812 7.292-14.361 11.767-23.745 13.447-20.25 3.626-41.716-12.354-43.703-32.834-1.68-17.314 4.102-31.637 19.448-40.13 23.774-13.158 53.325.139 57.38 28.582 1.095 7.69.644 15.601.904 23.911m-15.081-34.039c-3.247-3.268-6.054-7.208-9.826-9.672-9.808-6.408-22.19-5.532-31.257 1.451-9.947 7.661-14.315 20.173-11.142 31.916 2.881 10.665 13.03 20.093 21.981 21.504 21.575 3.4 41.326-21.168 30.244-45.199z"/><path fill="#1F3BDB" d="M708.413 104.39c7.212-6.335 15.232-9.442 24.537-8.693 12.799 1.03 22.805 9.417 23.816 22.159 1.407 17.727 1.325 35.572 1.893 53.77h-10.005c0-1.629.02-3.39-.003-5.151-.176-14.157.025-28.33-.637-42.464-.826-17.64-17.418-25.6-32.32-15.8-8.453 5.557-12.47 13.707-12.611 23.653-.187 13.138-.046 26.28-.046 39.782h-9.812V68.832h9.533v40.448c1.99-1.714 3.693-3.18 5.655-4.89zM394.466 93.827c21.683 1.243 37.38 19.983 35.67 42.155-1.215 15.769-9.292 27.204-23.677 32.936-15.005 5.979-29.468 3.76-41.703-7.62-11.75-10.93-15.333-29.19-8.862-44.162 6.767-15.656 21.23-24.507 38.572-23.309m-7.271 9.513c-15.097 3.595-23.884 13.997-24.573 29.087-.603 13.196 8.32 26.067 20.322 29.315 14.54 3.936 28.036-1.683 34.406-14.821 5.08-10.48 4.61-21.089-1.927-30.785-6.432-9.541-15.699-14.014-28.228-12.796z"/><path fill="#213CDB" d="M832.983 127.979V95.74h8.872c0 17.05 1.066 33.895-.303 50.54-1.339 16.274-13.61 25.392-30.887 25.712-19.027.353-31.5-10.573-32.572-29.559-.824-14.61-.585-29.281-.802-43.925-.011-.804.134-1.61.236-2.74h9.521c0 1.795-.028 3.556.004 5.315.27 14.472.104 28.97.973 43.406.663 11.021 9.803 18.099 21.827 18.278 11.932.177 21.005-7.154 22.28-18.357.6-5.276.587-10.621.851-16.431zM337.168 110.185c-1.993 2.07-4.14 3.793-6.208 5.452-18.762-15.913-38.436-17.09-51.23-3.364-10.972 11.77-10.72 30.56.563 42.043 12.637 12.86 32.8 11.438 50.255-3.813l6.812 4.4c-5.825 12.132-25.273 19.86-44.541 15.967-16.78-3.389-29.653-17.832-30.755-34.279-1.25-18.64 9.115-34.428 26.668-40.62 17.947-6.33 38.114-.538 48.436 14.214z"/><path fill="#1B36DA" d="M480.008 172a343.761 343.761 0 0 1-4.932-.237V68.436h8.985c.1 1.62.284 3.21.285 4.799.017 31.323-.003 62.645.037 93.968.004 2.797.336 5.572-4.375 4.797zM456.273 123V171.7h-9.243V68.506h9.243V123z"/><path fill="none" d="M643.138 161.393c-12.383 3.068-22.899.549-30.96-9.1-8.073-9.664-9.357-20.791-4.82-32.295 4.498-11.405 17.334-18.836 29.183-17.665 13.766 1.36 24.063 10.773 27.044 24.722 2.502 11.707-3.43 25.333-13.747 31.315-1.993 1.156-4.214 1.917-6.7 3.023zM926.027 148.887c-8.778 12.074-21.463 16.561-34.24 12.372-12.224-4.008-20.254-15.839-20.105-29.624.144-13.436 7.914-23.915 20.719-27.946 11.529-3.629 23.664.051 31.384 9.517 8.373 10.267 9.24 22.953 2.242 35.681zM563.964 117.299c10.905 23.693-8.846 48.262-30.42 44.861-8.952-1.41-19.101-10.84-21.982-21.504-3.173-11.743 1.195-24.255 11.142-31.916 9.068-6.983 21.449-7.859 31.257-1.451 3.772 2.464 6.58 6.404 10.003 10.01zM387.621 103.286c12.103-1.164 21.37 3.309 27.802 12.85 6.537 9.696 7.007 20.305 1.927 30.785-6.37 13.138-19.865 18.757-34.406 14.821-12.002-3.248-20.925-16.12-20.322-29.315.689-15.09 9.476-25.492 25-29.141z"/></svg>