<svg xmlns="http://www.w3.org/2000/svg" xmlns:xlink="http://www.w3.org/1999/xlink" version="1.1" style="shape-rendering:geometricPrecision; text-rendering:geometricPrecision; image-rendering:optimizeQuality; fill-rule:evenodd; clip-rule:evenodd" viewBox="23.5 16.18 189 205.32">
<g><path style="opacity:0.99" fill="#1130f3" d="M 109.5,16.5 C 133.004,14.1773 146.337,24.6773 149.5,48C 147.091,70.8687 134.424,81.5354 111.5,80C 93.746,74.3379 85.5793,62.1712 87,43.5C 89.6341,30.3721 97.1341,21.3721 109.5,16.5 Z"/></g>
<g><path style="opacity:0.991" fill="#1130f3" d="M 118.5,113.5 C 117.55,116.068 117.55,118.568 118.5,121C 117.833,121.333 117.167,121.667 116.5,122C 118.188,124.831 118.855,127.664 118.5,130.5C 109.685,161.637 96.3517,190.803 78.5,218C 74.1562,220.419 69.4895,221.586 64.5,221.5C 51.4953,220.954 38.4953,220.288 25.5,219.5C 41.2774,191.613 54.6107,162.613 65.5,132.5C 63.9961,126.164 59.9961,122.331 53.5,121C 43.5501,119.669 33.5501,119.169 23.5,119.5C 23.5,102.833 23.5,86.1667 23.5,69.5C 45.2199,69.0444 66.8866,69.5444 88.5,71C 100.848,77.0165 109.348,86.5165 114,99.5C 115.198,104.401 116.698,109.068 118.5,113.5 Z"/></g>
<g><path style="opacity:0.995" fill="#1232f3" d="M 118.5,130.5 C 118.855,127.664 118.188,124.831 116.5,122C 117.167,121.667 117.833,121.333 118.5,121C 117.55,118.568 117.55,116.068 118.5,113.5C 120.501,96.3161 128.501,82.8161 142.5,73C 145.657,71.4219 148.991,70.4219 152.5,70C 172.497,69.5 192.497,69.3334 212.5,69.5C 212.5,86.1667 212.5,102.833 212.5,119.5C 201.052,118.99 189.719,119.823 178.5,122C 170.622,125.968 168.455,132.135 172,140.5C 183.359,167.719 196.193,194.219 210.5,220C 192.742,220.972 175.076,220.639 157.5,219C 155.641,217.442 154.141,215.609 153,213.5C 143.06,193.288 133.394,172.955 124,152.5C 121.029,145.427 119.196,138.094 118.5,130.5 Z"/></g>
</svg>